<svg width="170" height="165" viewBox="0 0 170 165" fill="none" xmlns="http://www.w3.org/2000/svg">
<path d="M73.2657 99L64.7662 115.5H144.492C146.746 115.5 148.908 116.369 150.502 117.916C152.096 119.464 152.991 121.562 152.991 123.75C152.991 125.938 152.096 128.036 150.502 129.584C148.908 131.131 146.746 132 144.492 132H64.7662C61.873 131.998 59.028 131.28 56.5006 129.913C53.9732 128.546 51.8472 126.576 50.3237 124.188C48.8002 121.801 47.9298 119.075 47.7948 116.27C47.6597 113.465 48.2646 110.672 49.5521 108.157L58.6466 90.75L28.2184 16.5H8.4995C6.2453 16.5 4.08341 15.6308 2.48945 14.0836C0.895481 12.5365 0 10.438 0 8.25001C0 6.06197 0.895481 3.96355 2.48945 2.41638C4.08341 0.869201 6.2453 7.73512e-06 8.4995 7.73512e-06H28.2184C31.6229 -0.00319131 34.95 0.985963 37.7687 2.83934C40.5874 4.69272 42.7678 7.32493 44.0274 10.395L49.9771 24.75H159.791H160.556C161.93 24.5622 163.331 24.7038 164.635 25.1625C165.674 25.5626 166.621 26.1575 167.423 26.9133C168.224 27.669 168.864 28.5708 169.307 29.567C169.749 30.5631 169.984 31.6341 169.999 32.7187C170.014 33.8032 169.809 34.88 169.395 35.8875L145.596 93.6375C144.967 95.1725 143.876 96.4886 142.467 97.4153C141.058 98.342 139.394 98.8366 137.692 98.835L73.2657 99ZM72.2458 140.25C69.7242 140.25 67.2593 140.976 65.1627 142.336C63.0661 143.695 61.432 145.628 60.467 147.889C59.502 150.151 59.2496 152.639 59.7415 155.039C60.2334 157.44 61.4477 159.645 63.2307 161.375C65.0137 163.106 67.2854 164.285 69.7585 164.762C72.2316 165.24 74.7951 164.995 77.1247 164.058C79.4543 163.121 81.4455 161.535 82.8464 159.5C84.2473 157.465 84.995 155.073 84.995 152.625C84.995 149.343 83.6518 146.195 81.2609 143.875C78.8699 141.554 75.6271 140.25 72.2458 140.25ZM123.243 140.25C120.721 140.25 118.256 140.976 116.16 142.336C114.063 143.695 112.429 145.628 111.464 147.889C110.499 150.151 110.247 152.639 110.739 155.039C111.23 157.44 112.445 159.645 114.228 161.375C116.011 163.106 118.282 164.285 120.756 164.762C123.229 165.24 125.792 164.995 128.122 164.058C130.451 163.121 132.443 161.535 133.843 159.5C135.244 157.465 135.992 155.073 135.992 152.625C135.992 149.343 134.649 146.195 132.258 143.875C129.867 141.554 126.624 140.25 123.243 140.25Z" fill="#8E8E8E"/>
</svg>
