<svg width="121" height="161" viewBox="0 0 121 161" fill="none" xmlns="http://www.w3.org/2000/svg">
<path d="M114.042 13.4167H87.2083V6.70833C87.2083 3.00532 84.2096 0 80.5 0H40.25C36.5404 0 33.5417 3.00532 33.5417 6.70833V13.4167H6.70833C2.99877 13.4167 0 16.422 0 20.125V154.292C0 157.995 2.99877 161 6.70833 161H114.042C117.751 161 120.75 157.995 120.75 154.292V20.125C120.75 16.422 117.751 13.4167 114.042 13.4167ZM46.9583 20.125V13.4167H73.7917V20.125V26.8333H46.9583V20.125ZM80.5 127.458H40.25C36.5404 127.458 33.5417 124.453 33.5417 120.75C33.5417 117.047 36.5404 114.042 40.25 114.042H80.5C84.2096 114.042 87.2083 117.047 87.2083 120.75C87.2083 124.453 84.2096 127.458 80.5 127.458ZM80.5 100.625H40.25C36.5404 100.625 33.5417 97.6197 33.5417 93.9167C33.5417 90.2137 36.5404 87.2083 40.25 87.2083H80.5C84.2096 87.2083 87.2083 90.2137 87.2083 93.9167C87.2083 97.6197 84.2096 100.625 80.5 100.625ZM80.5 73.7917H40.25C36.5404 73.7917 33.5417 70.7863 33.5417 67.0833C33.5417 63.3803 36.5404 60.375 40.25 60.375H80.5C84.2096 60.375 87.2083 63.3803 87.2083 67.0833C87.2083 70.7863 84.2096 73.7917 80.5 73.7917Z" fill="#8E8E8E"/>
</svg>
